HIERARCHY
ROOT Hips
{
    OFFSET 0.000000 0.000000 0.000000
    CHANNELS 6 Xposition Yposition Zposition Zrotation Xrotation Yrotation
    JOINT Spine
    {
        OFFSET -0.000000 0.076330 0.000000
        CHANNELS 3 Zrotation Xrotation Yrotation
        JOINT Spine1
        {
            OFFSET -0.000000 0.237362 0.000000
            CHANNELS 3 Zrotation Xrotation Yrotation
            JOINT Neck
            {
                OFFSET -0.000000 0.236387 0.021490
                CHANNELS 3 Zrotation Xrotation Yrotation
                JOINT Head
                {
                    OFFSET -0.000000 0.130319 -0.018617
                    CHANNELS 3 Zrotation Xrotation Yrotation
                    End Site
                    {
                        OFFSET -0.000000 0.186171 0.000000
                    }
                }
            }
            JOINT LeftShoulder
            {
                OFFSET 0.037234 0.224974 -0.001544
                CHANNELS 3 Zrotation Xrotation Yrotation
                JOINT LeftArm
                {
                    OFFSET 0.093508 0.000000 0.000000
                    CHANNELS 3 Zrotation Xrotation Yrotation
                    JOINT LeftForeArm
                    {
                        OFFSET 0.301875 0.000000 0.000000
                        CHANNELS 3 Zrotation Xrotation Yrotation
                        JOINT LeftHand
                        {
                            OFFSET 0.245701 0.000000 0.000000
                            CHANNELS 3 Zrotation Xrotation Yrotation
                            End Site
                            {
                                OFFSET 0.139628 0.000000 0.000000
                            }
                        }
                    }
                }
            }
            JOINT RightShoulder
            {
                OFFSET -0.037028 0.224974 -0.001544
                CHANNELS 3 Zrotation Xrotation Yrotation
                JOINT RightArm
                {
                    OFFSET -0.093508 0.000000 0.000000
                    CHANNELS 3 Zrotation Xrotation Yrotation
                    JOINT RightForeArm
                    {
                        OFFSET -0.301875 0.000000 0.000000
                        CHANNELS 3 Zrotation Xrotation Yrotation
                        JOINT RightHand
                        {
                            OFFSET -0.245701 0.000000 0.000000
                            CHANNELS 3 Zrotation Xrotation Yrotation
                            End Site
                            {
                                OFFSET -0.139628 0.000000 0.000000
                            }
                        }
                    }
                }
            }
        }
    }
    JOINT LeftUpLeg
    {
        OFFSET 0.093085 0.000000 0.000000
        CHANNELS 3 Zrotation Xrotation Yrotation
        JOINT LeftLeg
        {
            OFFSET -0.000000 -0.318817 0.000000
            CHANNELS 3 Zrotation Xrotation Yrotation
            JOINT LeftFoot
            {
                OFFSET -0.000000 -0.383648 0.000000
                CHANNELS 3 Zrotation Xrotation Yrotation
                JOINT LeftToeBase
                {
                    OFFSET -0.000000 -0.060505 0.139628
                    CHANNELS 3 Zrotation Xrotation Yrotation
                    End Site
                    {
                        OFFSET -0.000000 0.000000 0.037234
                    }
                }
            }
        }
    }
    JOINT RightUpLeg
    {
        OFFSET -0.093085 0.000000 0.000000
        CHANNELS 3 Zrotation Xrotation Yrotation
        JOINT RightLeg
        {
            OFFSET -0.000000 -0.318817 0.000000
            CHANNELS 3 Zrotation Xrotation Yrotation
            JOINT RightFoot
            {
                OFFSET -0.000000 -0.383648 0.000000
                CHANNELS 3 Zrotation Xrotation Yrotation
                JOINT RightToeBase
                {
                    OFFSET -0.000000 -0.060505 0.139628
                    CHANNELS 3 Zrotation Xrotation Yrotation
                    End Site
                    {
                        OFFSET -0.000000 0.000000 0.037234
                    }
                }
            }
        }
    }
}
MOTION
Frames:    9
Frame Time:    0.010000
1.005126    0.782960    -1.347493    0.065613    0.125069    -57.494919    -0.250254    21.152197    -14.876961    3.414342    -51.520435    -3.209912    12.556073    50.572014    5.247588    -11.368823    -5.581682    7.945278    0.000000    0.000000    0.000000    -91.826530    42.868816    51.670639    -4.406714    -12.892466    -82.142174    -3.928547    -17.602678    29.646132    0.877504    24.503092    27.406591    20.088327    0.994673    5.611522    88.285133    22.816645    17.214687    -15.344511    7.027397    -4.131855    6.825835    -4.083337    -3.569702    -10.294202    18.280281    9.335229    -0.547306    -11.658639    2.000876    0.000000    0.000000    0.000000    -4.333400    3.853565    1.581669    8.107339    1.206482    2.281108    0.529928    -6.368187    -2.938768    0.000000    0.000000    0.000000    
1.005011    0.782973    -1.347809    0.040052    0.091920    -57.557812    -0.230064    21.161116    -14.891770    3.345262    -51.494251    -3.248103    12.596066    50.544254    5.247113    -11.346431    -5.520498    7.965466    0.000000    0.000000    0.000000    -91.878456    42.872406    51.772186    -4.454491    -12.866166    -82.151001    -3.868133    -17.599981    29.583103    0.946578    24.485203    27.423061    29.608076    2.133112    8.001223    78.877335    19.725874    16.337530    -15.776961    6.982016    -3.358131    6.826575    -4.055870    -3.642682    -10.339334    18.297714    9.584148    -0.604858    -11.650538    1.952670    0.000000    0.000000    0.000000    -4.359863    3.925664    1.629386    8.138855    1.082906    2.261834    0.537242    -6.268557    -2.833936    0.000000    0.000000    0.000000    
1.006364    0.783960    -1.346719    -0.170510    -0.573608    -56.617767    0.196915    22.091856    -15.738493    2.523923    -52.025860    -3.881333    12.774326    50.600079    5.163460    -11.483257    -5.563060    7.923467    0.000000    0.000000    0.000000    -91.946693    42.755398    51.822842    -4.404285    -12.878373    -81.988846    -4.094079    -17.611748    29.447256    1.087995    24.466713    27.335001    34.616390    2.886706    9.118662    73.374046    17.594910    15.212183    -15.224614    6.862365    -3.285148    5.922111    -3.649910    -5.424642    -9.725732    17.604683    7.932590    -0.744061    -10.587322    3.454270    0.000000    0.000000    0.000000    -5.096066    4.815932    0.483233    8.614337    0.710888    2.256692    0.647074    -5.919949    -2.714956    0.000000    0.000000    0.000000    
1.006269    0.783888    -1.347095    -0.167361    -0.595568    -56.680656    0.194464    22.042303    -15.730602    2.470401    -51.959518    -3.907039    12.835194    50.587734    5.143898    -11.523819    -5.526472    7.919506    0.000000    0.000000    0.000000    -91.898361    42.760410    51.822624    -4.489680    -12.811002    -81.956047    -4.164258    -17.629206    29.362791    1.146546    24.443851    27.351784    37.475895    3.359701    9.690837    69.829086    16.511555    14.181284    -15.208442    6.963871    -1.578140    5.922730    -3.670489    -5.397410    -9.733556    17.653452    8.022681    -0.764733    -10.609388    3.416849    0.000000    0.000000    0.000000    -5.119542    4.828928    0.509327    8.662309    0.702167    2.113267    0.554277    -5.944165    -2.546834    0.000000    0.000000    0.000000    
1.006131    0.783915    -1.347449    -0.193193    -0.613558    -56.732807    0.264073    22.027348    -15.746329    2.344145    -51.923145    -3.970867    12.871646    50.583641    5.160030    -11.528078    -5.507738    7.950336    0.000000    0.000000    0.000000    -91.945099    42.748981    51.995953    -4.572554    -12.789293    -82.046555    -4.598625    -17.794813    29.447281    1.217094    24.415205    27.342318    39.173481    3.653811    10.003304    67.810844    15.573279    13.427195    -13.351983    6.976711    -2.653770    5.936295    -3.679950    -5.299951    -9.686683    17.751211    7.846724    -0.760097    -10.599983    3.509152    0.000000    0.000000    0.000000    -5.106441    4.829611    0.514663    8.671995    0.690301    2.099794    0.567970    -5.907944    -2.445520    0.000000    0.000000    0.000000    
1.006081    0.783889    -1.347922    -0.192278    -0.616167    -56.814663    0.308207    22.027824    -15.744197    2.267237    -51.930573    -4.004768    12.922378    50.569641    5.181760    -11.557887    -5.455618    7.989156    0.000000    0.000000    0.000000    -92.025993    42.797306    52.162640    -4.610675    -12.801601    -82.068527    -4.557862    -17.825365    29.338568    1.267117    24.379732    27.315212    40.231434    3.841705    10.181787    66.357849    15.103083    12.664536    -13.514966    7.145645    -1.795300    5.968663    -3.953851    -5.248394    -10.136174    18.507376    10.452082    -0.741977    -10.991357    1.995685    0.000000    0.000000    0.000000    -5.101105    4.825855    0.577238    8.699822    0.625097    2.075498    0.471469    -5.869269    -2.374362    0.000000    0.000000    0.000000    
1.005863    0.783864    -1.348249    -0.210845    -0.636321    -56.831638    0.415448    21.993067    -15.804821    2.082216    -51.893410    -4.109798    12.972327    50.557640    5.210133    -11.581231    -5.403037    8.036232    0.000000    0.000000    0.000000    -92.096062    42.805458    52.346630    -4.641148    -12.814175    -82.107727    -4.575737    -17.866941    29.262814    1.347305    24.368120    27.349976    40.869442    3.956537    10.275655    65.550499    14.266764    11.518809    -13.589287    7.041037    -0.793046    5.979251    -3.938187    -5.266784    -10.091243    18.501348    10.245502    -0.779649    -10.948151    2.141736    0.000000    0.000000    0.000000    -5.102251    4.884273    0.603705    8.725111    0.585305    2.044285    0.623646    -5.850284    -2.348125    0.000000    0.000000    0.000000    
1.005860    0.783811    -1.348793    -0.192966    -0.636174    -56.913177    0.444021    21.989910    -15.789853    2.022857    -51.911762    -4.131578    13.020498    50.556744    5.218813    -11.622247    -5.374634    8.058311    0.000000    0.000000    0.000000    -92.155457    42.805214    52.489529    -4.644703    -12.835980    -82.103798    -4.665450    -17.908436    29.143480    1.374843    24.338531    27.332081    41.220291    4.020093    10.320621    65.266174    13.844593    10.535210    -13.176096    7.208498    -0.171424    5.980554    -4.470167    -1.772577    -8.977243    19.983824    6.780390    -0.843893    -11.008539    2.212161    0.000000    0.000000    0.000000    -5.103116    4.834221    0.669587    8.759094    0.566443    2.009164    0.496383    -5.848253    -2.289503    0.000000    0.000000    0.000000    
1.005649    0.783778    -1.349177    -0.209918    -0.653727    -56.932449    0.510020    21.949385    -15.818035    1.896825    -51.854668    -4.199907    13.065901    50.548508    5.230805    -11.648643    -5.345868    8.084237    0.000000    0.000000    0.000000    -92.227287    42.756588    52.642124    -5.162829    -13.343448    -81.752747    -4.725410    -18.756519    27.597723    1.430751    24.311205    27.323462    41.378304    4.048775    10.338348    65.120422    13.538389    9.684296    -13.553307    7.336792    0.875645    5.998338    -4.701563    -0.106395    -8.381121    20.674570    5.057166    -0.864259    -11.026801    2.242745    0.000000    0.000000    0.000000    -5.103361    4.922640    0.737190    8.801608    0.431488    1.925037    0.544926    -5.789334    -2.242510    0.000000    0.000000    0.000000    
